<?xml version="1.0" encoding="utf-8"?>
<!-- Generator: Adobe Illustrator 18.0.0, SVG Export Plug-In . SVG Version: 6.00 Build 0)  -->
<!DOCTYPE svg PUBLIC "-//W3C//DTD SVG 1.1//EN" "http://www.w3.org/Graphics/SVG/1.1/DTD/svg11.dtd">
<svg version="1.1" xmlns="http://www.w3.org/2000/svg" xmlns:xlink="http://www.w3.org/1999/xlink" x="0px" y="0px"
	 viewBox="0 0 48 48" enable-background="new 0 0 48 48" xml:space="preserve">
<symbol  id="material_x5F_system_x5F_icon_x5F_border" viewBox="0 -48 48 48">
	<polygon fill="none" points="0,0 0,-48 48,-48 48,0 	"/>
</symbol>
<symbol  id="material_x5F_system_x5F_icon_x5F_grid" viewBox="0 -48 48 48">
	<g>
		<defs>
			<polygon id="SVGID_1_" points="48,-48 0,-48 0,0 48,0 			"/>
		</defs>
		<clipPath id="SVGID_2_">
			<use xlink:href="#SVGID_1_"  overflow="visible"/>
		</clipPath>
		<g clip-path="url(#SVGID_2_)">
			<g>
				<line fill="none" stroke="#000000" stroke-width="0.25" stroke-miterlimit="10" x1="2" y1="-48" x2="2" y2="0"/>
				<line fill="none" stroke="#000000" stroke-width="0.25" stroke-miterlimit="10" x1="4" y1="-48" x2="4" y2="0"/>
				<line fill="none" stroke="#000000" stroke-width="0.25" stroke-miterlimit="10" x1="6" y1="-48" x2="6" y2="0"/>
				<line fill="none" stroke="#000000" stroke-width="0.25" stroke-miterlimit="10" x1="8" y1="-48" x2="8" y2="0"/>
				<line fill="none" stroke="#000000" stroke-width="0.25" stroke-miterlimit="10" x1="10" y1="-48" x2="10" y2="0"/>
				<line fill="none" stroke="#000000" stroke-width="0.25" stroke-miterlimit="10" x1="12" y1="-48" x2="12" y2="0"/>
				<line fill="none" stroke="#000000" stroke-width="0.25" stroke-miterlimit="10" x1="14" y1="-48" x2="14" y2="0"/>
				<line fill="none" stroke="#000000" stroke-width="0.25" stroke-miterlimit="10" x1="16" y1="-48" x2="16" y2="0"/>
				<line fill="none" stroke="#000000" stroke-width="0.25" stroke-miterlimit="10" x1="18" y1="-48" x2="18" y2="0"/>
				<line fill="none" stroke="#000000" stroke-width="0.25" stroke-miterlimit="10" x1="20" y1="-48" x2="20" y2="0"/>
				<line fill="none" stroke="#000000" stroke-width="0.25" stroke-miterlimit="10" x1="22" y1="-48" x2="22" y2="0"/>
				<line fill="none" stroke="#000000" stroke-width="0.25" stroke-miterlimit="10" x1="24" y1="-48" x2="24" y2="0"/>
				<line fill="none" stroke="#000000" stroke-width="0.25" stroke-miterlimit="10" x1="26" y1="-48" x2="26" y2="0"/>
				<line fill="none" stroke="#000000" stroke-width="0.25" stroke-miterlimit="10" x1="28" y1="-48" x2="28" y2="0"/>
				<line fill="none" stroke="#000000" stroke-width="0.25" stroke-miterlimit="10" x1="30" y1="-48" x2="30" y2="0"/>
				<line fill="none" stroke="#000000" stroke-width="0.25" stroke-miterlimit="10" x1="32" y1="-48" x2="32" y2="0"/>
				<line fill="none" stroke="#000000" stroke-width="0.25" stroke-miterlimit="10" x1="34" y1="-48" x2="34" y2="0"/>
				<line fill="none" stroke="#000000" stroke-width="0.25" stroke-miterlimit="10" x1="36" y1="-48" x2="36" y2="0"/>
				<line fill="none" stroke="#000000" stroke-width="0.25" stroke-miterlimit="10" x1="38" y1="-48" x2="38" y2="0"/>
				<line fill="none" stroke="#000000" stroke-width="0.25" stroke-miterlimit="10" x1="40" y1="-48" x2="40" y2="0"/>
				<line fill="none" stroke="#000000" stroke-width="0.25" stroke-miterlimit="10" x1="42" y1="-48" x2="42" y2="0"/>
				<line fill="none" stroke="#000000" stroke-width="0.25" stroke-miterlimit="10" x1="44" y1="-48" x2="44" y2="0"/>
				<line fill="none" stroke="#000000" stroke-width="0.25" stroke-miterlimit="10" x1="46" y1="-48" x2="46" y2="0"/>
			</g>
			<g>
				<line fill="none" stroke="#000000" stroke-width="0.25" stroke-miterlimit="10" x1="0" y1="-2" x2="48" y2="-2"/>
				<line fill="none" stroke="#000000" stroke-width="0.25" stroke-miterlimit="10" x1="0" y1="-4" x2="48" y2="-4"/>
				<line fill="none" stroke="#000000" stroke-width="0.25" stroke-miterlimit="10" x1="0" y1="-6" x2="48" y2="-6"/>
				<line fill="none" stroke="#000000" stroke-width="0.25" stroke-miterlimit="10" x1="0" y1="-8" x2="48" y2="-8"/>
				<line fill="none" stroke="#000000" stroke-width="0.25" stroke-miterlimit="10" x1="0" y1="-10" x2="48" y2="-10"/>
				<line fill="none" stroke="#000000" stroke-width="0.25" stroke-miterlimit="10" x1="0" y1="-12" x2="48" y2="-12"/>
				<line fill="none" stroke="#000000" stroke-width="0.25" stroke-miterlimit="10" x1="0" y1="-14" x2="48" y2="-14"/>
				<line fill="none" stroke="#000000" stroke-width="0.25" stroke-miterlimit="10" x1="0" y1="-16" x2="48" y2="-16"/>
				<line fill="none" stroke="#000000" stroke-width="0.25" stroke-miterlimit="10" x1="0" y1="-18" x2="48" y2="-18"/>
				<line fill="none" stroke="#000000" stroke-width="0.25" stroke-miterlimit="10" x1="0" y1="-20" x2="48" y2="-20"/>
				<line fill="none" stroke="#000000" stroke-width="0.25" stroke-miterlimit="10" x1="0" y1="-22" x2="48" y2="-22"/>
				<line fill="none" stroke="#000000" stroke-width="0.25" stroke-miterlimit="10" x1="0" y1="-24" x2="48" y2="-24"/>
				<line fill="none" stroke="#000000" stroke-width="0.25" stroke-miterlimit="10" x1="0" y1="-26" x2="48" y2="-26"/>
				<line fill="none" stroke="#000000" stroke-width="0.25" stroke-miterlimit="10" x1="0" y1="-28" x2="48" y2="-28"/>
				<line fill="none" stroke="#000000" stroke-width="0.25" stroke-miterlimit="10" x1="0" y1="-30" x2="48" y2="-30"/>
				<line fill="none" stroke="#000000" stroke-width="0.25" stroke-miterlimit="10" x1="0" y1="-32" x2="48" y2="-32"/>
				<line fill="none" stroke="#000000" stroke-width="0.25" stroke-miterlimit="10" x1="0" y1="-34" x2="48" y2="-34"/>
				<line fill="none" stroke="#000000" stroke-width="0.25" stroke-miterlimit="10" x1="0" y1="-36" x2="48" y2="-36"/>
				<line fill="none" stroke="#000000" stroke-width="0.25" stroke-miterlimit="10" x1="0" y1="-38" x2="48" y2="-38"/>
				<line fill="none" stroke="#000000" stroke-width="0.25" stroke-miterlimit="10" x1="0" y1="-40" x2="48" y2="-40"/>
				<line fill="none" stroke="#000000" stroke-width="0.25" stroke-miterlimit="10" x1="0" y1="-42" x2="48" y2="-42"/>
				<line fill="none" stroke="#000000" stroke-width="0.25" stroke-miterlimit="10" x1="0" y1="-44" x2="48" y2="-44"/>
				<line fill="none" stroke="#000000" stroke-width="0.25" stroke-miterlimit="10" x1="0" y1="-46" x2="48" y2="-46"/>
			</g>
			<g>
				<path d="M47.7-0.2v-47.5H0.2v47.5H47.7 M48,0H0v-48h48V0L48,0z"/>
			</g>
		</g>
	</g>
</symbol>
<symbol  id="material_x5F_system_x5F_icon_x5F_keylines" viewBox="6 -42 36 36">
	<g>
		<path fill="#FFC107" d="M38-6H10c-2.2,0-4-1.8-4-4v-28c0-2.2,1.8-4,4-4h28c2.2,0,4,1.8,4,4v28C42-7.8,40.2-6,38-6z"/>
	</g>
</symbol>
<g id="icon" display="none">
	<circle display="inline" cx="24" cy="24" r="20"/>
</g>
<g id="border">
	
		<use xlink:href="#material_x5F_system_x5F_icon_x5F_border"  width="48" height="48" id="XMLID_2_" y="-48" transform="matrix(1 0 0 -1 0 0)" overflow="visible"/>
</g>
<g id="grid">
	
		<use xlink:href="#material_x5F_system_x5F_icon_x5F_grid"  width="48" height="48" id="XMLID_1_" x="0" y="-48" transform="matrix(1 0 0 -1 0 0)" display="none" overflow="visible" opacity="0.15"/>
</g>
<g id="keylines">
	<g>
		
			<use xlink:href="#material_x5F_system_x5F_icon_x5F_keylines"  width="36" height="36" id="XMLID_3_" x="6" y="-42" transform="matrix(1 0 0 -1 0 0)" overflow="visible"/>
		<g>
			<path fill="#BFBFBF" d="M36.7,17.9c2.6-6-0.3-13-6.3-15.6c-6-2.6-13,0.3-15.6,6.3c-0.2,0.4-0.3,0.8-0.4,1.3L6.6,28.3l21.7,9.2
				l7.7-18.3C36.3,18.7,36.5,18.3,36.7,17.9z"/>
			<path fill="#B4B4B4" d="M30.3,2.4c-1-0.4-2-0.7-3-0.8c4.2,3.2,5.8,8.9,3.7,14c-0.2,0.4-0.4,0.8-0.6,1.2l-7.7,18.3l5.6,2.4
				l7.7-18.3c0.2-0.4,0.4-0.8,0.6-1.2C39.2,11.9,36.4,4.9,30.3,2.4z"/>
			<path fill="#EDEDED" d="M31.8,6.3c0,0,1.3-0.7-3-2.5c-4.3-1.8-9.4,0.2-11.2,4.5c-0.1,0.3-7.9,16.5-8,16.8l4,1.5
				c0,0,6.1-14.1,7.6-16.5c3-5.1,8.6-3.1,8.6-3.1C29.8,6.7,31.6,6.6,31.8,6.3z"/>
			<rect x="18.8" y="8.9" transform="matrix(0.921 0.3896 -0.3896 0.921 6.1559 -6.9703)" fill="#FF007A" width="3" height="5.5"/>
			<rect x="24.1" y="11.2" transform="matrix(0.921 0.3896 -0.3896 0.921 7.4501 -8.861)" fill="#2DD809" width="3" height="5.5"/>
			
				<rect x="17.9" y="33.3" transform="matrix(0.921 0.3896 -0.3896 0.921 16.4589 -5.1061)" fill="#BFBFBF" width="5.8" height="9.5"/>
			
				<rect x="9.3" y="29.6" transform="matrix(0.921 0.3896 -0.3896 0.921 14.3518 -2.0281)" fill="#BFBFBF" width="5.8" height="9.5"/>
			
				<rect x="29.2" y="13.3" transform="matrix(0.921 0.3896 -0.3896 0.921 8.6965 -10.6817)" fill="#0979CC" width="3" height="5.5"/>
		</g>
	</g>
</g>
</svg>
