<?xml version="1.0" encoding="utf-8"?>
<!-- Generator: Adobe Illustrator 18.0.0, SVG Export Plug-In . SVG Version: 6.00 Build 0)  -->
<!DOCTYPE svg PUBLIC "-//W3C//DTD SVG 1.1//EN" "http://www.w3.org/Graphics/SVG/1.1/DTD/svg11.dtd">
<svg version="1.1" xmlns="http://www.w3.org/2000/svg" xmlns:xlink="http://www.w3.org/1999/xlink" x="0px" y="0px"
	 viewBox="0 0 48 48" enable-background="new 0 0 48 48" xml:space="preserve">
<symbol  id="material_x5F_system_x5F_icon_x5F_border" viewBox="0 -48 48 48">
	<polygon fill="none" points="0,0 0,-48 48,-48 48,0 	"/>
</symbol>
<symbol  id="material_x5F_system_x5F_icon_x5F_grid" viewBox="0 -48 48 48">
	<g>
		<defs>
			<polygon id="SVGID_1_" points="48,-48 0,-48 0,0 48,0 			"/>
		</defs>
		<clipPath id="SVGID_2_">
			<use xlink:href="#SVGID_1_"  overflow="visible"/>
		</clipPath>
		<g clip-path="url(#SVGID_2_)">
			<g>
				<line fill="none" stroke="#000000" stroke-width="0.25" stroke-miterlimit="10" x1="2" y1="-48" x2="2" y2="0"/>
				<line fill="none" stroke="#000000" stroke-width="0.25" stroke-miterlimit="10" x1="4" y1="-48" x2="4" y2="0"/>
				<line fill="none" stroke="#000000" stroke-width="0.25" stroke-miterlimit="10" x1="6" y1="-48" x2="6" y2="0"/>
				<line fill="none" stroke="#000000" stroke-width="0.25" stroke-miterlimit="10" x1="8" y1="-48" x2="8" y2="0"/>
				<line fill="none" stroke="#000000" stroke-width="0.25" stroke-miterlimit="10" x1="10" y1="-48" x2="10" y2="0"/>
				<line fill="none" stroke="#000000" stroke-width="0.25" stroke-miterlimit="10" x1="12" y1="-48" x2="12" y2="0"/>
				<line fill="none" stroke="#000000" stroke-width="0.25" stroke-miterlimit="10" x1="14" y1="-48" x2="14" y2="0"/>
				<line fill="none" stroke="#000000" stroke-width="0.25" stroke-miterlimit="10" x1="16" y1="-48" x2="16" y2="0"/>
				<line fill="none" stroke="#000000" stroke-width="0.25" stroke-miterlimit="10" x1="18" y1="-48" x2="18" y2="0"/>
				<line fill="none" stroke="#000000" stroke-width="0.25" stroke-miterlimit="10" x1="20" y1="-48" x2="20" y2="0"/>
				<line fill="none" stroke="#000000" stroke-width="0.25" stroke-miterlimit="10" x1="22" y1="-48" x2="22" y2="0"/>
				<line fill="none" stroke="#000000" stroke-width="0.25" stroke-miterlimit="10" x1="24" y1="-48" x2="24" y2="0"/>
				<line fill="none" stroke="#000000" stroke-width="0.25" stroke-miterlimit="10" x1="26" y1="-48" x2="26" y2="0"/>
				<line fill="none" stroke="#000000" stroke-width="0.25" stroke-miterlimit="10" x1="28" y1="-48" x2="28" y2="0"/>
				<line fill="none" stroke="#000000" stroke-width="0.25" stroke-miterlimit="10" x1="30" y1="-48" x2="30" y2="0"/>
				<line fill="none" stroke="#000000" stroke-width="0.25" stroke-miterlimit="10" x1="32" y1="-48" x2="32" y2="0"/>
				<line fill="none" stroke="#000000" stroke-width="0.25" stroke-miterlimit="10" x1="34" y1="-48" x2="34" y2="0"/>
				<line fill="none" stroke="#000000" stroke-width="0.25" stroke-miterlimit="10" x1="36" y1="-48" x2="36" y2="0"/>
				<line fill="none" stroke="#000000" stroke-width="0.25" stroke-miterlimit="10" x1="38" y1="-48" x2="38" y2="0"/>
				<line fill="none" stroke="#000000" stroke-width="0.25" stroke-miterlimit="10" x1="40" y1="-48" x2="40" y2="0"/>
				<line fill="none" stroke="#000000" stroke-width="0.25" stroke-miterlimit="10" x1="42" y1="-48" x2="42" y2="0"/>
				<line fill="none" stroke="#000000" stroke-width="0.25" stroke-miterlimit="10" x1="44" y1="-48" x2="44" y2="0"/>
				<line fill="none" stroke="#000000" stroke-width="0.25" stroke-miterlimit="10" x1="46" y1="-48" x2="46" y2="0"/>
			</g>
			<g>
				<line fill="none" stroke="#000000" stroke-width="0.25" stroke-miterlimit="10" x1="0" y1="-2" x2="48" y2="-2"/>
				<line fill="none" stroke="#000000" stroke-width="0.25" stroke-miterlimit="10" x1="0" y1="-4" x2="48" y2="-4"/>
				<line fill="none" stroke="#000000" stroke-width="0.25" stroke-miterlimit="10" x1="0" y1="-6" x2="48" y2="-6"/>
				<line fill="none" stroke="#000000" stroke-width="0.25" stroke-miterlimit="10" x1="0" y1="-8" x2="48" y2="-8"/>
				<line fill="none" stroke="#000000" stroke-width="0.25" stroke-miterlimit="10" x1="0" y1="-10" x2="48" y2="-10"/>
				<line fill="none" stroke="#000000" stroke-width="0.25" stroke-miterlimit="10" x1="0" y1="-12" x2="48" y2="-12"/>
				<line fill="none" stroke="#000000" stroke-width="0.25" stroke-miterlimit="10" x1="0" y1="-14" x2="48" y2="-14"/>
				<line fill="none" stroke="#000000" stroke-width="0.25" stroke-miterlimit="10" x1="0" y1="-16" x2="48" y2="-16"/>
				<line fill="none" stroke="#000000" stroke-width="0.25" stroke-miterlimit="10" x1="0" y1="-18" x2="48" y2="-18"/>
				<line fill="none" stroke="#000000" stroke-width="0.25" stroke-miterlimit="10" x1="0" y1="-20" x2="48" y2="-20"/>
				<line fill="none" stroke="#000000" stroke-width="0.25" stroke-miterlimit="10" x1="0" y1="-22" x2="48" y2="-22"/>
				<line fill="none" stroke="#000000" stroke-width="0.25" stroke-miterlimit="10" x1="0" y1="-24" x2="48" y2="-24"/>
				<line fill="none" stroke="#000000" stroke-width="0.25" stroke-miterlimit="10" x1="0" y1="-26" x2="48" y2="-26"/>
				<line fill="none" stroke="#000000" stroke-width="0.25" stroke-miterlimit="10" x1="0" y1="-28" x2="48" y2="-28"/>
				<line fill="none" stroke="#000000" stroke-width="0.25" stroke-miterlimit="10" x1="0" y1="-30" x2="48" y2="-30"/>
				<line fill="none" stroke="#000000" stroke-width="0.25" stroke-miterlimit="10" x1="0" y1="-32" x2="48" y2="-32"/>
				<line fill="none" stroke="#000000" stroke-width="0.25" stroke-miterlimit="10" x1="0" y1="-34" x2="48" y2="-34"/>
				<line fill="none" stroke="#000000" stroke-width="0.25" stroke-miterlimit="10" x1="0" y1="-36" x2="48" y2="-36"/>
				<line fill="none" stroke="#000000" stroke-width="0.25" stroke-miterlimit="10" x1="0" y1="-38" x2="48" y2="-38"/>
				<line fill="none" stroke="#000000" stroke-width="0.25" stroke-miterlimit="10" x1="0" y1="-40" x2="48" y2="-40"/>
				<line fill="none" stroke="#000000" stroke-width="0.25" stroke-miterlimit="10" x1="0" y1="-42" x2="48" y2="-42"/>
				<line fill="none" stroke="#000000" stroke-width="0.25" stroke-miterlimit="10" x1="0" y1="-44" x2="48" y2="-44"/>
				<line fill="none" stroke="#000000" stroke-width="0.25" stroke-miterlimit="10" x1="0" y1="-46" x2="48" y2="-46"/>
			</g>
			<g>
				<path d="M47.7-0.2v-47.5H0.2v47.5H47.7 M48,0H0v-48h48V0L48,0z"/>
			</g>
		</g>
	</g>
</symbol>
<symbol  id="material_x5F_system_x5F_icon_x5F_keylines" viewBox="3 -45 42 42.1">
	<g>
		<path fill="#03A9F4" d="M38-6H10c-2.2,0-4-1.8-4-4v-28c0-2.2,1.8-4,4-4h28c2.2,0,4,1.8,4,4v28C42-7.8,40.2-6,38-6z"/>
	</g>
	<path fill="#BFBFBF" d="M27.1-39.1c-2-0.4-4.1-0.4-6.1,0c-2,0.4-3.8,1.2-5.5,2.3c-1.7,1.1-3.1,2.5-4.2,4.2C10.2-31,9.4-29.1,9-27
		c-0.4,2-0.4,4.1,0,6.1c0.4,2,1.2,3.8,2.3,5.5c1.1,1.7,2.5,3.1,4.2,4.2c1.7,1.2,3.6,2,5.7,2.4c2,0.4,4.1,0.4,6.1,0
		c2-0.4,3.8-1.2,5.5-2.3c1.7-1.1,3.1-2.5,4.2-4.2c1.2-1.7,2-3.6,2.4-5.7c0.4-2,0.4-4.1,0-6.1c-0.4-2-1.2-3.8-2.3-5.5
		c-1.1-1.7-2.5-3.1-4.2-4.2C31.1-37.9,29.2-38.7,27.1-39.1z"/>
	<path fill="#BFBFBF" d="M31.4-14.5l-3.2,2c-0.9,0.5-1.1,1.7-0.6,2.6l2.9,4.6C31-4.4,32.1-4.1,33-4.7l3.2-2c0.9-0.5,1.1-1.7,0.6-2.6
		L34-13.9C33.4-14.7,32.3-15,31.4-14.5z"/>
	<path fill="#BFBFBF" d="M36-22.7L35.2-19c-0.2,1,0.4,2,1.4,2.2l5.3,1.1c1,0.2,2-0.4,2.2-1.4l0.8-3.7c0.2-1-0.4-2-1.4-2.2l-5.3-1.1
		C37.2-24.4,36.2-23.7,36-22.7z"/>
	<path fill="#BFBFBF" d="M33.2-31.7l2.1,3.2c0.6,0.8,1.7,1.1,2.6,0.5l4.5-3c0.8-0.6,1.1-1.7,0.5-2.6l-2.1-3.2
		c-0.6-0.8-1.7-1.1-2.6-0.5l-4.5,3C32.9-33.7,32.7-32.5,33.2-31.7z"/>
	<path fill="#BFBFBF" d="M25.1-36l3.7,0.7c1,0.2,2-0.5,2.2-1.5L32-42c0.2-1-0.5-2-1.5-2.2l-3.7-0.7c-1-0.2-2,0.5-2.2,1.5l-1.1,5.3
		C23.4-37.1,24.1-36.2,25.1-36z"/>
	<path fill="#BFBFBF" d="M16.4-33.3l3.2-2.1c0.9-0.6,1.1-1.7,0.6-2.6l-3-4.6c-0.6-0.9-1.7-1.1-2.6-0.6L11.5-41
		c-0.9,0.6-1.1,1.7-0.6,2.6l3,4.6C14.4-33,15.6-32.8,16.4-33.3z"/>
	<path fill="#BFBFBF" d="M12-25l0.7-3.8c0.2-1-0.5-2-1.5-2.2l-5.3-1c-1-0.2-2,0.5-2.2,1.5L3-26.7c-0.2,1,0.5,2,1.5,2.2l5.3,1
		C10.8-23.3,11.8-24,12-25z"/>
	<path fill="#BFBFBF" d="M15-16.1l-2.2-3.1c-0.6-0.8-1.7-1-2.6-0.5l-4.5,3.1c-0.8,0.6-1,1.7-0.5,2.6l2.2,3.1c0.6,0.8,1.7,1,2.6,0.5
		l4.5-3.1C15.3-14.1,15.5-15.2,15-16.1z"/>
	<path fill="#BFBFBF" d="M23.2-12l-3.8-0.7c-1-0.2-2,0.5-2.1,1.5l-1,5.4c-0.2,1,0.5,2,1.5,2.1L21.6-3c1,0.2,2-0.5,2.1-1.5l1-5.4
		C24.9-10.8,24.2-11.8,23.2-12z"/>
	<path fill="#03A9F4" d="M25.1-29.4c-0.7-0.1-1.5-0.1-2.2,0c-0.7,0.1-1.4,0.4-2,0.8c-0.6,0.4-1.1,0.9-1.5,1.5
		c-0.4,0.6-0.7,1.3-0.9,2c-0.1,0.7-0.1,1.5,0,2.2c0.1,0.7,0.4,1.4,0.8,2c0.4,0.6,0.9,1.1,1.5,1.5c0.6,0.4,1.3,0.7,2,0.9
		c0.7,0.1,1.5,0.1,2.2,0c0.7-0.1,1.4-0.4,2-0.8c0.6-0.4,1.1-0.9,1.5-1.5c0.4-0.6,0.7-1.3,0.9-2c0.1-0.7,0.1-1.5,0-2.2
		c-0.1-0.7-0.4-1.4-0.8-2c-0.4-0.6-0.9-1.1-1.5-1.5C26.5-29,25.8-29.3,25.1-29.4z"/>
	<path fill="#B5B5B5" d="M45-20.8l-0.8,3.7c-0.2,1-1.2,1.6-2.2,1.4l-4.3-0.9c-0.2,0.4-0.5,0.9-0.8,1.3c0,0-1.8-4.7-7.6-6.7
		c0,0,0,0,0,0c0.1-0.3,0.2-0.6,0.3-0.9c0.1-0.7,0.1-1.5,0-2.2c-0.1-0.7-0.4-1.4-0.8-2c-0.4-0.6-0.9-1.1-1.5-1.5
		c-0.6-0.4-1.3-0.7-2-0.9s-1.5-0.1-2.2,0c-0.7,0.1-1.4,0.4-2,0.8c-0.6,0.4-1.1,0.9-1.5,1.5c0,0.1-0.1,0.1-0.1,0.2
		c-2.5-1.9-4.8-4.5-6.1-8l-2.3-3.5c-0.6-0.9-0.3-2,0.6-2.6l3.2-2.1c0.9-0.6,2-0.3,2.6,0.6l2.4,3.8c0.4-0.1,0.9-0.3,1.4-0.3
		c0.9-0.2,1.9-0.3,2.9-0.3l0.8-4c0.2-1,1.2-1.7,2.2-1.5l3.7,0.7c1,0.2,1.7,1.2,1.5,2.2l-0.9,4.3c0.5,0.3,1.1,0.6,1.6,0.9
		c0.8,0.5,1.4,1.1,2.1,1.7l3.4-2.3c0.8-0.6,2-0.3,2.6,0.5l2.1,3.2c0.6,0.8,0.3,2-0.5,2.6l-3.6,2.4c0.2,0.5,0.3,1,0.4,1.5
		c0.2,1.1,0.3,2.1,0.3,3.2l4,0.9C44.5-22.8,45.2-21.8,45-20.8z"/>
	<path fill="none" stroke="#9FA0A0" stroke-width="3" stroke-miterlimit="10" d="M24-17.4c-3.6,0-6.6-2.9-6.6-6.6
		c0-3.6,2.9-6.6,6.6-6.6c3.6,0,6.6,2.9,6.6,6.6C30.6-20.3,27.6-17.4,24-17.4z"/>
	<path fill="#BFBFBF" d="M36.8-9.3c0.5,0.9,0.3,2-0.6,2.6"/>
</symbol>
<g id="icon" display="none">
	<circle display="inline" cx="24" cy="24" r="20"/>
</g>
<g id="border">
	
		<use xlink:href="#material_x5F_system_x5F_icon_x5F_border"  width="48" height="48" id="XMLID_2_" y="-48" transform="matrix(1 0 0 -1 0 0)" overflow="visible"/>
</g>
<g id="grid">
	
		<use xlink:href="#material_x5F_system_x5F_icon_x5F_grid"  width="48" height="48" id="XMLID_1_" x="0" y="-48" transform="matrix(1 0 0 -1 0 0)" display="none" overflow="visible" opacity="0.15"/>
</g>
<g id="keylines">
	
		<use xlink:href="#material_x5F_system_x5F_icon_x5F_keylines"  width="42" height="42.1" id="XMLID_3_" x="3" y="-45" transform="matrix(1 0 0 -1 0 0)" overflow="visible"/>
</g>
</svg>
