<?xml version="1.0" encoding="utf-8"?>
<!DOCTYPE svg PUBLIC "-//W3C//DTD SVG 1.1//EN" "http://www.w3.org/Graphics/SVG/1.1/DTD/svg11.dtd">
<svg version="1.1" xmlns="http://www.w3.org/2000/svg" xmlns:xlink="http://www.w3.org/1999/xlink" x="0px" y="0px"
	 viewBox="0 0 48 48" enable-background="new 0 0 48 48" xml:space="preserve">
<symbol  id="material_x5F_system_x5F_icon_x5F_border" viewBox="0 -48 48 48">
	<polygon fill="none" points="0,0 0,-48 48,-48 48,0 	"/>
</symbol>
<symbol  id="material_x5F_system_x5F_icon_x5F_grid" viewBox="0 -48 48 48">
	<g>
		<defs>
			<polygon id="SVGID_1_" points="48,-48 0,-48 0,0 48,0 			"/>
		</defs>
		<clipPath id="SVGID_2_">
			<use xlink:href="#SVGID_1_"  overflow="visible"/>
		</clipPath>
		<g clip-path="url(#SVGID_2_)">
			<g>
				<line fill="none" stroke="#000000" stroke-width="0.25" stroke-miterlimit="10" x1="2" y1="-48" x2="2" y2="0"/>
				<line fill="none" stroke="#000000" stroke-width="0.25" stroke-miterlimit="10" x1="4" y1="-48" x2="4" y2="0"/>
				<line fill="none" stroke="#000000" stroke-width="0.25" stroke-miterlimit="10" x1="6" y1="-48" x2="6" y2="0"/>
				<line fill="none" stroke="#000000" stroke-width="0.25" stroke-miterlimit="10" x1="8" y1="-48" x2="8" y2="0"/>
				<line fill="none" stroke="#000000" stroke-width="0.25" stroke-miterlimit="10" x1="10" y1="-48" x2="10" y2="0"/>
				<line fill="none" stroke="#000000" stroke-width="0.25" stroke-miterlimit="10" x1="12" y1="-48" x2="12" y2="0"/>
				<line fill="none" stroke="#000000" stroke-width="0.25" stroke-miterlimit="10" x1="14" y1="-48" x2="14" y2="0"/>
				<line fill="none" stroke="#000000" stroke-width="0.25" stroke-miterlimit="10" x1="16" y1="-48" x2="16" y2="0"/>
				<line fill="none" stroke="#000000" stroke-width="0.25" stroke-miterlimit="10" x1="18" y1="-48" x2="18" y2="0"/>
				<line fill="none" stroke="#000000" stroke-width="0.25" stroke-miterlimit="10" x1="20" y1="-48" x2="20" y2="0"/>
				<line fill="none" stroke="#000000" stroke-width="0.25" stroke-miterlimit="10" x1="22" y1="-48" x2="22" y2="0"/>
				<line fill="none" stroke="#000000" stroke-width="0.25" stroke-miterlimit="10" x1="24" y1="-48" x2="24" y2="0"/>
				<line fill="none" stroke="#000000" stroke-width="0.25" stroke-miterlimit="10" x1="26" y1="-48" x2="26" y2="0"/>
				<line fill="none" stroke="#000000" stroke-width="0.25" stroke-miterlimit="10" x1="28" y1="-48" x2="28" y2="0"/>
				<line fill="none" stroke="#000000" stroke-width="0.25" stroke-miterlimit="10" x1="30" y1="-48" x2="30" y2="0"/>
				<line fill="none" stroke="#000000" stroke-width="0.25" stroke-miterlimit="10" x1="32" y1="-48" x2="32" y2="0"/>
				<line fill="none" stroke="#000000" stroke-width="0.25" stroke-miterlimit="10" x1="34" y1="-48" x2="34" y2="0"/>
				<line fill="none" stroke="#000000" stroke-width="0.25" stroke-miterlimit="10" x1="36" y1="-48" x2="36" y2="0"/>
				<line fill="none" stroke="#000000" stroke-width="0.25" stroke-miterlimit="10" x1="38" y1="-48" x2="38" y2="0"/>
				<line fill="none" stroke="#000000" stroke-width="0.25" stroke-miterlimit="10" x1="40" y1="-48" x2="40" y2="0"/>
				<line fill="none" stroke="#000000" stroke-width="0.25" stroke-miterlimit="10" x1="42" y1="-48" x2="42" y2="0"/>
				<line fill="none" stroke="#000000" stroke-width="0.25" stroke-miterlimit="10" x1="44" y1="-48" x2="44" y2="0"/>
				<line fill="none" stroke="#000000" stroke-width="0.25" stroke-miterlimit="10" x1="46" y1="-48" x2="46" y2="0"/>
			</g>
			<g>
				<line fill="none" stroke="#000000" stroke-width="0.25" stroke-miterlimit="10" x1="0" y1="-2" x2="48" y2="-2"/>
				<line fill="none" stroke="#000000" stroke-width="0.25" stroke-miterlimit="10" x1="0" y1="-4" x2="48" y2="-4"/>
				<line fill="none" stroke="#000000" stroke-width="0.25" stroke-miterlimit="10" x1="0" y1="-6" x2="48" y2="-6"/>
				<line fill="none" stroke="#000000" stroke-width="0.25" stroke-miterlimit="10" x1="0" y1="-8" x2="48" y2="-8"/>
				<line fill="none" stroke="#000000" stroke-width="0.25" stroke-miterlimit="10" x1="0" y1="-10" x2="48" y2="-10"/>
				<line fill="none" stroke="#000000" stroke-width="0.25" stroke-miterlimit="10" x1="0" y1="-12" x2="48" y2="-12"/>
				<line fill="none" stroke="#000000" stroke-width="0.25" stroke-miterlimit="10" x1="0" y1="-14" x2="48" y2="-14"/>
				<line fill="none" stroke="#000000" stroke-width="0.25" stroke-miterlimit="10" x1="0" y1="-16" x2="48" y2="-16"/>
				<line fill="none" stroke="#000000" stroke-width="0.25" stroke-miterlimit="10" x1="0" y1="-18" x2="48" y2="-18"/>
				<line fill="none" stroke="#000000" stroke-width="0.25" stroke-miterlimit="10" x1="0" y1="-20" x2="48" y2="-20"/>
				<line fill="none" stroke="#000000" stroke-width="0.25" stroke-miterlimit="10" x1="0" y1="-22" x2="48" y2="-22"/>
				<line fill="none" stroke="#000000" stroke-width="0.25" stroke-miterlimit="10" x1="0" y1="-24" x2="48" y2="-24"/>
				<line fill="none" stroke="#000000" stroke-width="0.25" stroke-miterlimit="10" x1="0" y1="-26" x2="48" y2="-26"/>
				<line fill="none" stroke="#000000" stroke-width="0.25" stroke-miterlimit="10" x1="0" y1="-28" x2="48" y2="-28"/>
				<line fill="none" stroke="#000000" stroke-width="0.25" stroke-miterlimit="10" x1="0" y1="-30" x2="48" y2="-30"/>
				<line fill="none" stroke="#000000" stroke-width="0.25" stroke-miterlimit="10" x1="0" y1="-32" x2="48" y2="-32"/>
				<line fill="none" stroke="#000000" stroke-width="0.25" stroke-miterlimit="10" x1="0" y1="-34" x2="48" y2="-34"/>
				<line fill="none" stroke="#000000" stroke-width="0.25" stroke-miterlimit="10" x1="0" y1="-36" x2="48" y2="-36"/>
				<line fill="none" stroke="#000000" stroke-width="0.25" stroke-miterlimit="10" x1="0" y1="-38" x2="48" y2="-38"/>
				<line fill="none" stroke="#000000" stroke-width="0.25" stroke-miterlimit="10" x1="0" y1="-40" x2="48" y2="-40"/>
				<line fill="none" stroke="#000000" stroke-width="0.25" stroke-miterlimit="10" x1="0" y1="-42" x2="48" y2="-42"/>
				<line fill="none" stroke="#000000" stroke-width="0.25" stroke-miterlimit="10" x1="0" y1="-44" x2="48" y2="-44"/>
				<line fill="none" stroke="#000000" stroke-width="0.25" stroke-miterlimit="10" x1="0" y1="-46" x2="48" y2="-46"/>
			</g>
			<g>
				<path d="M47.7-0.2v-47.5H0.2v47.5H47.7 M48,0H0v-48h48V0L48,0z"/>
			</g>
		</g>
	</g>
</symbol>
<symbol  id="material_x5F_system_x5F_icon_x5F_keylines" viewBox="4.9 -45.1 37.1 42.9">
	<g>
		<path fill="none" stroke="#000000" stroke-width="0.25" stroke-miterlimit="10" d="M24-14c-5.5,0-10-4.5-10-10c0-5.5,4.5-10,10-10
			c5.5,0,10,4.5,10,10C34-18.5,29.5-14,24-14z"/>
		<path fill="#CDDC39" d="M38-6H10c-2.2,0-4-1.8-4-4v-28c0-2.2,1.8-4,4-4h28c2.2,0,4,1.8,4,4v28C42-7.8,40.2-6,38-6z"/>
	</g>
	<path fill="#BFBFBF" d="M8.6-38.9l2.3,3.1c0.6,0.8,1.8,1,2.6,0.4l4.3-3.3c0.8-0.6,1-1.8,0.4-2.6l-2.3-3.1c-0.6-0.8-1.8-1-2.6-0.4
		l-4.3,3.3C8.1-40.9,8-39.7,8.6-38.9z"/>
	<path fill="#BFBFBF" d="M16.2-30.1l2.3,3.1c0.6,0.8,1.8,1,2.6,0.4l4.3-3.3c0.8-0.6,1-1.8,0.4-2.6l-2.3-3.1c-0.6-0.8-1.8-1-2.6-0.4
		l-4.3,3.3C15.8-32.1,15.6-30.9,16.2-30.1z"/>
	<path fill="#BFBFBF" d="M25.4-16.5L25.4-16.5c-1.5,1.2-3.7,0.9-4.9-0.6L5.6-36.5c-1.2-1.5-0.9-3.7,0.6-4.9l0,0
		c1.5-1.2,3.7-0.9,4.9,0.6l14.9,19.4C27.2-19.9,27-17.7,25.4-16.5z"/>
	<path fill="#BFBFBF" d="M40.3-13.1c0-6-4.9-10.9-10.9-10.9s-10.9,4.9-10.9,10.9S23.4-2.2,29.4-2.2S40.3-7.1,40.3-13.1z"/>
	<path fill="#B4B4B4" d="M40.3-13.1c0-6-4.9-10.9-10.9-10.9s-9.4,3.9-4.9,8c4.2,3.8,4.4,9.5,9.5,6.3C37.3-11.7,40.3-7.1,40.3-13.1z"
		/>
	<path fill="none" stroke="#9FA0A0" stroke-width="3" stroke-miterlimit="10" d="M32.8-7.6c-0.8,0-1.4-0.6-1.4-1.4
		c0-0.8,0.6-1.4,1.4-1.4c0.8,0,1.4,0.6,1.4,1.4C34.2-8.2,33.6-7.6,32.8-7.6z"/>
</symbol>
<g id="icon" display="none">
	<circle display="inline" cx="24" cy="24" r="20"/>
</g>
<g id="border">

		<use xlink:href="#material_x5F_system_x5F_icon_x5F_border"  width="48" height="48" id="XMLID_2_" y="-48" transform="matrix(1 0 0 -1 0 0)" overflow="visible"/>
</g>
<g id="grid">

		<use xlink:href="#material_x5F_system_x5F_icon_x5F_grid"  width="48" height="48" id="XMLID_1_" x="0" y="-48" transform="matrix(1 0 0 -1 0 0)" display="none" overflow="visible" opacity="0.15"/>
</g>
<g id="keylines">

		<use xlink:href="#material_x5F_system_x5F_icon_x5F_keylines"  width="37.1" height="42.9" id="XMLID_3_" x="4.9" y="-45.1" transform="matrix(1 0 0 -1 0 0)" overflow="visible"/>
</g>
</svg>
