<?xml version="1.0" encoding="utf-8"?>
<!-- Generator: Adobe Illustrator 19.1.0, SVG Export Plug-In . SVG Version: 6.00 Build 0)  -->
<svg version="1.1" xmlns="http://www.w3.org/2000/svg" xmlns:xlink="http://www.w3.org/1999/xlink" x="0px" y="0px"
	 viewBox="0 0 500 500" enable-background="new 0 0 500 500" xml:space="preserve">
<g id="Ebene_2" display="none">
</g>
<g id="Ebene_1">
	<g>
		<path fill="#333333" d="M258.2,403.5c-39.6,0-79.2-15.1-109.3-45.2c-60.3-60.3-60.3-158.3,0-218.6s158.3-60.3,218.6,0
			s60.3,158.3,0,218.6C337.4,388.4,297.8,403.5,258.2,403.5z M258.2,114.5c-34.5,0-68.9,13.1-95.2,39.4
			c-52.5,52.5-52.5,137.8,0,190.3c52.5,52.5,137.8,52.5,190.3,0c52.5-52.5,52.5-137.8,0-190.3C327.2,127.6,292.7,114.5,258.2,114.5z
			"/>
	</g>
	<g>
		<polygon fill="#333333" points="213.8,204.7 274.2,188.5 318.7,233.1 302.8,292.8 241.2,309.8 197.3,265.9 		"/>
		<path fill="#333333" d="M369,292.8c-5.8,14.7-14.4,28.2-26.3,40.1c-14.2,14.2-30.9,23.8-49,29.3L256,324.6L369,292.8z"/>
		<path fill="#333333" d="M374.9,272.8l-52.1,14.5l30.1-110.6C374.2,204.7,381.5,239.9,374.9,272.8z"/>
		<path fill="#333333" d="M338.8,161.3l-14,51.6L242.8,131C276.6,126.6,312,136.7,338.8,161.3z"/>
		<path fill="#333333" d="M222.3,135.5l38,37.9l-111.8,29.4c5.8-13.8,14.3-26.8,25.6-38C188,150.8,204.6,141,222.3,135.5z"/>
		<path fill="#333333" d="M142.1,222.8l51.4-13.5l-16.9,62.3l0.2,0.2l-13.4,49.5C141.6,292.8,134.5,256.4,142.1,222.8z"/>
		<path fill="#333333" d="M177.5,336.9l13.8-50.6l44.4,44.4l36.7,36.7C239.6,370.7,204,361.2,177.5,336.9z"/>
	</g>
</g>
</svg>
