<?xml version="1.0" encoding="utf-8"?>
<!-- Generator: Adobe Illustrator 19.1.0, SVG Export Plug-In . SVG Version: 6.00 Build 0)  -->
<svg version="1.1" xmlns="http://www.w3.org/2000/svg" xmlns:xlink="http://www.w3.org/1999/xlink" x="0px" y="0px"
	 viewBox="0 0 500 500" enable-background="new 0 0 500 500" xml:space="preserve">
<g id="Ebene_2" display="none">
	<g display="inline">
		<circle fill="#F2F2F2" cx="250" cy="250" r="250"/>
	</g>
</g>
<g id="Ebene_1">
	<g>
		<path fill="#333333" d="M282.9,274.4L282.9,274.4c9-9,19-13.8,5.5-28.3L166.6,115.5C148.3,97.2,124,92,112.3,103.7l0,0
			c-11.8,11.8-6.5,36.1,11.7,54.3l130.6,121.9C269.1,293.4,273.9,283.4,282.9,274.4z"/>
		<path fill="#333333" d="M402.5,344.2c0,47.3-44.6,70.4-63,77.9c-3.8,1.5-8-1-8.4-5c-1.7-14.9,12.8-48-30.9-65.3
			c-37.8-15-10.1-75.9,36.3-75.9C365.6,275.8,402.5,294.9,402.5,344.2z"/>
	</g>
</g>
</svg>
