<?xml version="1.0" encoding="utf-8"?>
<!-- Generator: Adobe Illustrator 19.1.0, SVG Export Plug-In . SVG Version: 6.00 Build 0)  -->
<svg version="1.1" id="Ebene_1" xmlns="http://www.w3.org/2000/svg" xmlns:xlink="http://www.w3.org/1999/xlink" x="0px" y="0px"
	 viewBox="-709 291 500 500" enable-background="new -709 291 500 500" xml:space="preserve">
<g id="Ebene_2">
</g>
<g id="Ebene_1_1_">
	<g>
		<g>
			<path fill="#333333" d="M-459,570.1l-68.2-68.2c-5.6-5.6-5.6-14.6,0-20.2l0,0c5.6-5.6,14.6-5.6,20.2,0l68.2,68.2L-459,570.1z"/>
			<path fill="#333333" d="M-479.2,549.9l68.2-68.2c5.6-5.6,14.6-5.6,20.2,0l0,0c5.6,5.6,5.6,14.6,0,20.2l-68.2,68.2L-479.2,549.9z"
				/>
			<path fill="#333333" d="M-444.7,442.5l0,113.3h-28.5V442.5c0-7.9,6.4-14.3,14.3-14.3l0,0C-451.1,428.2-444.7,434.6-444.7,442.5z"
				/>
		</g>
		<path fill="#333333" d="M-368.3,564.3v40.2h-181.4v-40.2c0-8-6.5-14.5-14.5-14.5l0,0c-8,0-14.5,6.5-14.5,14.5v40.6v11.8
			c0,9.5,7.8,17.2,17.3,17.1l11.5-0.1l0,0h181.5l0,0h12c9.4,0,17.1-7.7,17.1-17.1v-52.2c0-8-6.5-14.5-14.5-14.5l0,0
			C-361.8,549.8-368.3,556.3-368.3,564.3z"/>
	</g>
</g>
</svg>
