<?xml version="1.0" encoding="utf-8"?>
<!-- Generator: Adobe Illustrator 19.1.0, SVG Export Plug-In . SVG Version: 6.00 Build 0)  -->
<svg version="1.1" xmlns="http://www.w3.org/2000/svg" xmlns:xlink="http://www.w3.org/1999/xlink" x="0px" y="0px"
	 viewBox="0 0 500 500" enable-background="new 0 0 500 500" xml:space="preserve">
<g id="Ebene_2" display="none">
	<g display="inline">
		<circle fill="#F2F2F2" cx="250" cy="250" r="250"/>
	</g>
</g>
<g id="Ebene_1">
	<path fill="#333333" d="M256,96.5l41.8,84.7c1,2,2.9,3.3,5,3.7l93.4,13.6c5.5,0.8,7.7,7.5,3.7,11.4l-67.6,65.9
		c-1.6,1.5-2.3,3.8-1.9,5.9l16,93.1c0.9,5.5-4.8,9.6-9.7,7.1l-83.6-43.9c-1.9-1-4.3-1-6.2,0l-83.6,43.9c-4.9,2.6-10.6-1.6-9.7-7.1
		l16-93.1c0.4-2.2-0.3-4.4-1.9-5.9L100,209.8c-4-3.9-1.8-10.6,3.7-11.4l93.4-13.6c2.2-0.3,4.1-1.7,5-3.7L244,96.5
		C246.5,91.6,253.5,91.6,256,96.5z"/>
</g>
</svg>
