<?xml version="1.0" encoding="utf-8"?>
<!-- Generator: Adobe Illustrator 19.1.0, SVG Export Plug-In . SVG Version: 6.00 Build 0)  -->
<svg version="1.1" xmlns="http://www.w3.org/2000/svg" xmlns:xlink="http://www.w3.org/1999/xlink" x="0px" y="0px"
	 viewBox="0 0 500 500" enable-background="new 0 0 500 500" xml:space="preserve">
<g id="Ebene_2" display="none">
	<g display="inline">
		<circle fill="#F2F2F2" cx="250" cy="250" r="250"/>
	</g>
</g>
<g id="Ebene_1">
	<path fill="#333333" d="M372.6,361.3L283.8,133c-0.1-0.2-0.2-0.5-0.4-0.7c-4-12.5-15.8-21.6-29.7-21.6c-13.2,0-24.4,8.2-29.1,19.8
		c-0.2,0.5-0.5,1.1-0.7,1.5l-96.4,228.1c-4.3,10.1,0.5,21.7,10.6,25.9l2.5,1.1c10,4.2,21.6-0.6,25.9-10.6l36.4-86.2h95.7
		c0.6,0,1.1,0,1.7-0.1l33.1,86.6c3.9,10.1,15.4,15.2,25.6,11.2l2.5-0.9C371.7,382.9,376.7,371.5,372.6,361.3z M219.1,252l33.3-78.9
		c0.5,0,0.8,0,1.3,0c0.1,0,0.2,0,0.5,0l31,78.9H219.1z"/>
</g>
</svg>
