<?xml version="1.0" encoding="utf-8"?>
<!-- Generator: Adobe Illustrator 19.1.0, SVG Export Plug-In . SVG Version: 6.00 Build 0)  -->
<svg version="1.1" xmlns="http://www.w3.org/2000/svg" xmlns:xlink="http://www.w3.org/1999/xlink" x="0px" y="0px"
	 viewBox="0 0 500 500" enable-background="new 0 0 500 500" xml:space="preserve">
<g id="Ebene_2" display="none">
	<g display="inline">
		<circle fill="#F2F2F2" cx="250" cy="250" r="250"/>
	</g>
</g>
<g id="Ebene_1">
	<g>
		<path fill="#333333" d="M405,177.7V138v-11.2c0-9-7.5-16.6-16.4-16.5l-11-0.3H130.4H119c-8.9,0-17,8-17,16.9v52.3v120v41.3v11.2
			c0,9,7.8,16.4,16.8,16.3l11.3,0h247.4h11.4c8.9,0,16.2-7.5,16.2-16.4V179.2C405,178.6,405,178.2,405,177.7z M130,340v-40.7V179.2
			V138h247v161.3c0,0.6,0,1,0,1.5V340H130z M315,195.8l47,43.5V324H147l36.6-84.8l63.1,33.3L315,195.8z M170.7,185.4
			c0-11,8.9-19.9,19.9-19.9s19.9,8.9,19.9,19.9c0,11-8.9,19.9-19.9,19.9S170.7,196.3,170.7,185.4z"/>
	</g>
</g>
</svg>
