<?xml version="1.0" encoding="utf-8"?>
<!-- Generator: Adobe Illustrator 19.1.0, SVG Export Plug-In . SVG Version: 6.00 Build 0)  -->
<svg version="1.1" xmlns="http://www.w3.org/2000/svg" xmlns:xlink="http://www.w3.org/1999/xlink" x="0px" y="0px"
	 viewBox="0 0 500 500" enable-background="new 0 0 500 500" xml:space="preserve">
<g id="Ebene_2" display="none">
	<g display="inline">
		<circle fill="#F2F2F2" cx="250" cy="250" r="250"/>
	</g>
</g>
<g id="Ebene_1">
	<g>
		<path fill="#333333" d="M279.1,202.1v181.8c0,16.1-13,29.1-29.1,29.1h0c-16.1,0-29.1-13-29.1-29.1V202.1c0-16.1,13-29.1,29.1-29.1
			h0C266.1,173,279.1,186.1,279.1,202.1z"/>
		<path fill="#333333" d="M279.1,116.1L279.1,116.1c0,16.1-13,29.1-29.1,29.1h0c-16.1,0-29.1-13-29.1-29.1v0
			c0-16.1,13-29.1,29.1-29.1h0C266.1,87,279.1,100,279.1,116.1z"/>
	</g>
</g>
</svg>
