<?xml version="1.0" encoding="utf-8"?>
<!-- Generator: Adobe Illustrator 19.1.0, SVG Export Plug-In . SVG Version: 6.00 Build 0)  -->
<svg version="1.1" xmlns="http://www.w3.org/2000/svg" xmlns:xlink="http://www.w3.org/1999/xlink" x="0px" y="0px"
	 viewBox="0 0 500 500" enable-background="new 0 0 500 500" xml:space="preserve">
<g id="Ebene_2" display="none">
</g>
<g id="Ebene_1">
	<path fill="#333333" d="M344,231h-75v-75c0-10.4-8.6-18.8-19-18.8c-10.4,0-19,8.4-19,18.8v75h-75c-10.4,0-19,8.5-19,18.9v0.1
		c0,10.4,8.6,19,19,19h75v75c0,10.4,8.6,18.8,19,18.8c10.4,0,19-8.4,19-18.8v-75h75c10.4,0,19-8.5,19-18.9V250
		C363,239.6,354.4,231,344,231z"/>
</g>
</svg>
