<?xml version="1.0" encoding="utf-8"?>
<!-- Generator: Adobe Illustrator 19.1.0, SVG Export Plug-In . SVG Version: 6.00 Build 0)  -->
<svg version="1.1" xmlns="http://www.w3.org/2000/svg" xmlns:xlink="http://www.w3.org/1999/xlink" x="0px" y="0px"
	 viewBox="0 0 500 500" enable-background="new 0 0 500 500" xml:space="preserve">
<g id="Ebene_2" display="none">
	<g display="inline">
		<circle fill="#F2F2F2" cx="250" cy="250" r="250"/>
	</g>
</g>
<g id="Ebene_1">
	<path fill="#333333" d="M277.7,98.2l20,50.6l52-15.9c16.8,21.1,17.7,22.2,34.5,43.3l-27.1,47.2L402,254c-6,26.3-6.3,27.7-12.3,54
		l-53.8,8.2l4,54.3c-24.3,11.7-25.6,12.3-49.9,24L250,357.6l-39.9,36.9c-24.3-11.7-25.6-12.3-49.9-24l4-54.3l-53.8-8.2
		c-6-26.3-6.3-27.7-12.3-54l44.9-30.7l-27.1-47.2c16.8-21.1,17.7-22.2,34.5-43.3l52,15.9l20-50.6C249.3,98.2,250.7,98.2,277.7,98.2z
		 M250,319.3c39.6,0,71.7-32.1,71.7-71.7s-32.1-71.7-71.7-71.7s-71.7,32.1-71.7,71.7S210.4,319.3,250,319.3z"/>
</g>
</svg>
