<?xml version="1.0" encoding="utf-8"?>
<!-- Generator: Adobe Illustrator 19.1.0, SVG Export Plug-In . SVG Version: 6.00 Build 0)  -->
<svg version="1.1" id="Ebene_1" xmlns="http://www.w3.org/2000/svg" xmlns:xlink="http://www.w3.org/1999/xlink" x="0px" y="0px"
	 viewBox="0 0 30 30" enable-background="new 0 0 30 30" xml:space="preserve">
<g>
	<g>
		<g>
			<path fill="#333333" d="M19.2,10.9v10.9h-8.4V10.9c0-0.4-0.4-0.8-0.8-0.8h0c-0.4,0-0.8,0.4-0.8,0.8v10.9v0.6c0,0.5,0.4,1,1,0.9
				l0.6,0l0,0h8.5l0,0h0.7c0.5,0,0.9-0.4,0.9-0.9V10.9c0-0.4-0.4-0.8-0.8-0.8h0C19.6,10,19.2,10.4,19.2,10.9z"/>
		</g>
		<path fill="#333333" d="M10,11.5H20c0.4,0,0.8-0.4,0.8-0.8v0c0-0.4-0.4-0.8-0.8-0.8H10c-0.4,0-0.8,0.4-0.8,0.8v0
			C9.2,11.1,9.5,11.5,10,11.5z"/>
		<path fill="#333333" d="M10.8,22.4V10.9c0-0.4-0.4-0.8-0.8-0.8h0c-0.4,0-0.8,0.4-0.8,0.8v11.6c0,0.4,0.4,0.8,0.8,0.8h0
			C10.4,23.2,10.8,22.8,10.8,22.4z"/>
		<path fill="#333333" d="M17.5,22.4V10.9c0-0.4-0.4-0.8-0.8-0.8h0c-0.4,0-0.8,0.4-0.8,0.8v11.6c0,0.4,0.4,0.8,0.8,0.8h0
			C17.1,23.2,17.5,22.8,17.5,22.4z"/>
		<path fill="#333333" d="M20.8,22.4V10.9c0-0.4-0.4-0.8-0.8-0.8h0c-0.4,0-0.8,0.4-0.8,0.8v11.6c0,0.4,0.4,0.8,0.8,0.8h0
			C20.5,23.2,20.8,22.8,20.8,22.4z"/>
		<path fill="#333333" d="M14.1,22.4V10.9c0-0.4-0.4-0.8-0.8-0.8h0c-0.4,0-0.8,0.4-0.8,0.8v11.6c0,0.4,0.4,0.8,0.8,0.8h0
			C13.8,23.2,14.1,22.8,14.1,22.4z"/>
		<path fill="#333333" d="M10,8.3H20c0.4,0,0.8-0.4,0.8-0.8v0c0-0.4-0.4-0.8-0.8-0.8H10c-0.4,0-0.8,0.4-0.8,0.8v0
			C9.2,8,9.5,8.3,10,8.3z"/>
		<path fill="#333333" d="M14.4,8.3h1.2c0.6,0,1.1-0.5,1.1-1.1V6.2c0-0.6-0.5-1.1-1.1-1.1h-1.2c-0.6,0-1.1,0.5-1.1,1.1v1.1
			C13.3,7.9,13.8,8.3,14.4,8.3z"/>
	</g>
</g>
</svg>
