<?xml version="1.0" encoding="utf-8"?>
<!-- Generator: Adobe Illustrator 19.1.0, SVG Export Plug-In . SVG Version: 6.00 Build 0)  -->
<svg version="1.1" xmlns="http://www.w3.org/2000/svg" xmlns:xlink="http://www.w3.org/1999/xlink" x="0px" y="0px"
	 viewBox="0 0 500 500" enable-background="new 0 0 500 500" xml:space="preserve">
<g id="Ebene_2" display="none">
	<g display="inline">
		<circle fill="#00C800" cx="250" cy="250" r="250"/>
	</g>
</g>
<g id="Ebene_1">
	<g>
		<path fill="#333333" d="M166,210.9c6,7.1,18.3,7.1,25.4,0l42.6-42.8v92.5c0,10,7,18.1,17,18.1s17-8.1,17-18.1v-92.5l43.4,42.8
			c7.1,7.1,18.8,7.1,25.8,0l0,0c7.1-7.1,7.2-18.5,0.1-25.5l-60.8-60.9L251,99h0l-25.5,25h0l-60.2,61.1c-7.1,7.1-7.3,18.6,0.7,25.7
			V210.9z"/>
		<path fill="#333333" d="M384.5,253L384.5,253c-10.2,0-18.5,8.2-18.5,18.4V323H136v-51.6c0-10.2-8.3-18.4-18.5-18.4l0,0
			c-10.2,0-18.5,8.2-18.5,18.4v51.4v14.9c0,12.1,10,21.8,22.1,21.6l14.7-0.3h229.9H381c12,0,22-9.6,22-21.5v-66.1
			C403,261.2,394.7,253,384.5,253z"/>
	</g>
</g>
</svg>
