<?xml version="1.0" encoding="utf-8"?>
<!-- Generator: Adobe Illustrator 19.1.0, SVG Export Plug-In . SVG Version: 6.00 Build 0)  -->
<svg version="1.1" xmlns="http://www.w3.org/2000/svg" xmlns:xlink="http://www.w3.org/1999/xlink" x="0px" y="0px"
	 viewBox="0 0 500 500" enable-background="new 0 0 500 500" xml:space="preserve">
<g id="Ebene_2" display="none">
	<g display="inline">
		<circle fill="#F2F2F2" cx="250" cy="250" r="250"/>
	</g>
</g>
<g id="Ebene_1">
	<g>
		<path fill="#333333" d="M370.6,94L370.6,94h-85.5c-9.9,0-17.9,8.1-17.9,18s8,18,17.9,18h60.1l-64.9,64.6c-7,7-7,18.2,0,25.2
			s18.1,6.9,25.1-0.1l64.6-65v60.1c0,9.9,8.1,17.9,18,17.9s18-8,18-17.9v-85.5V93.6l0.4,0.4H370.6z"/>
		<path fill="#333333" d="M214.9,370h-60.1l65.6-64.6c7-7,6.7-18.2,0.7-25.2v0.1c-9-7-18.7-7-25.7,0L130,345.2v-60.1
			c0-9.9-8.1-17.9-18-17.9s-18,8-18,17.9v85.5v35.9l-0.4-0.4h35.9l0,0h85.5c9.9,0,18.1-7.9,18.1-17.8v-0.1
			C233,378.2,224.8,370,214.9,370z"/>
	</g>
</g>
</svg>
