<?xml version="1.0" encoding="utf-8"?>
<!-- Generator: Adobe Illustrator 19.1.0, SVG Export Plug-In . SVG Version: 6.00 Build 0)  -->
<svg version="1.1" xmlns="http://www.w3.org/2000/svg" xmlns:xlink="http://www.w3.org/1999/xlink" x="0px" y="0px"
	 viewBox="0 0 500 500" enable-background="new 0 0 500 500" xml:space="preserve">
<g id="Ebene_2" display="none">
	<g display="inline">
		<circle fill="#F2F2F2" cx="250" cy="250" r="250"/>
	</g>
</g>
<g id="Ebene_1">
	<g>
		<path fill="#333333" d="M383.6,202h-59.8l64.5-64.9c7-7,7-18.4,0-25.4c-7-7-18.6-7-25.5-0.1L298,176.1v-59.8
			c0-9.8-7.4-18.4-17.3-18.4h-0.2c-9.8,0-18.5,8.5-18.5,18.4v85V237l1,1h35.6l0,0h85c9.8,0,17.8-8.2,17.8-18l0,0
			C401.5,210.2,393.5,202,383.6,202z"/>
		<path fill="#333333" d="M201.3,262L201.3,262h-85c-9.8,0-17.8,8.2-17.8,18s8,18,17.8,18h59.8l-64.5,64.9c-7,7-7,18.4,0,25.4l0,0
			c7,7,18.6,7,25.5,0.1l64.9-64.4v59.8c0,9.8,7.4,18.4,17.3,18.4h0.2c9.8,0,18.5-8.5,18.5-18.4v-85V263l-1-1H201.3z"/>
	</g>
</g>
</svg>
